<?xml version="1.0" encoding="UTF-8" standalone="no"?>
<!-- Created with Inkscape (http://www.inkscape.org/) -->

<svg
   xmlns:dc="http://purl.org/dc/elements/1.1/"
   xmlns:cc="http://creativecommons.org/ns#"
   xmlns:rdf="http://www.w3.org/1999/02/22-rdf-syntax-ns#"
   xmlns:svg="http://www.w3.org/2000/svg"
   xmlns="http://www.w3.org/2000/svg"
   xmlns:xlink="http://www.w3.org/1999/xlink"
   xmlns:sodipodi="http://sodipodi.sourceforge.net/DTD/sodipodi-0.dtd"
   xmlns:inkscape="http://www.inkscape.org/namespaces/inkscape"
   width="108.14844mm"
   height="108.15082mm"
   viewBox="0 0 108.14844 108.15082"
   version="1.1"
   id="svg955"
   inkscape:version="0.92.2 (5c3e80d, 2017-08-06)"
   sodipodi:docname="logo-c1.svg"
   inkscape:export-filename="D:\Data\Spaces\harmony\res\logo\logo-c1.png"
   inkscape:export-xdpi="120.24689"
   inkscape:export-ydpi="120.24689">
  <defs
     id="defs949">
    <marker
       inkscape:stockid="DiamondLstart"
       orient="auto"
       refY="0"
       refX="0"
       id="DiamondLstart"
       style="overflow:visible"
       inkscape:isstock="true">
      <path
         id="path1003"
         d="M 0,-7.0710768 -7.0710894,0 0,7.0710589 7.0710462,0 Z"
         style="fill:#41beff;fill-opacity:0.1254902;fill-rule:evenodd;stroke:#41beff;stroke-width:1.00000003pt;stroke-opacity:1"
         transform="matrix(0.8,0,0,0.8,5.6,0)"
         inkscape:connector-curvature="0" />
    </marker>
    <marker
       inkscape:stockid="Arrow1Sstart"
       orient="auto"
       refY="0"
       refX="0"
       id="Arrow1Sstart"
       style="overflow:visible"
       inkscape:isstock="true">
      <path
         id="path927"
         d="M 0,0 5,-5 -12.5,0 5,5 Z"
         style="fill:#41beff;fill-opacity:0.1254902;fill-rule:evenodd;stroke:#41beff;stroke-width:1.00000003pt;stroke-opacity:1"
         transform="matrix(0.2,0,0,0.2,1.2,0)"
         inkscape:connector-curvature="0" />
    </marker>
    <marker
       inkscape:stockid="Arrow1Lstart"
       orient="auto"
       refY="0"
       refX="0"
       id="Arrow1Lstart"
       style="overflow:visible"
       inkscape:isstock="true">
      <path
         id="path915"
         d="M 0,0 5,-5 -12.5,0 5,5 Z"
         style="fill:#41beff;fill-opacity:0.1254902;fill-rule:evenodd;stroke:#41beff;stroke-width:1.00000003pt;stroke-opacity:1"
         transform="matrix(0.8,0,0,0.8,10,0)"
         inkscape:connector-curvature="0" />
    </marker>
    <linearGradient
       inkscape:collect="always"
       xlink:href="#linearGradient1710"
       id="linearGradient1712"
       x1="23.292786"
       y1="22.725813"
       x2="87.737724"
       y2="22.725813"
       gradientUnits="userSpaceOnUse"
       gradientTransform="matrix(0.52369254,0.39463064,-0.39463064,0.52369254,116.39192,-13.833956)" />
    <linearGradient
       inkscape:collect="always"
       id="linearGradient1710">
      <stop
         style="stop-color:#000000;stop-opacity:1;"
         offset="0"
         id="stop1706" />
      <stop
         style="stop-color:#000000;stop-opacity:0;"
         offset="1"
         id="stop1708" />
    </linearGradient>
    <filter
       x="-0.25"
       width="1.5"
       y="-0.25"
       height="1.5"
       inkscape:menu-tooltip="Smooth rainbow colors slightly melted along the edges"
       inkscape:menu="Textures"
       inkscape:label="Melted Rainbow"
       style="color-interpolation-filters:sRGB"
       id="filter5523">
      <feGaussianBlur
         result="result8"
         stdDeviation="5"
         id="feGaussianBlur5511" />
      <feTurbulence
         baseFrequency="0.015"
         numOctaves="2"
         type="fractalNoise"
         result="result7"
         seed="20"
         id="feTurbulence5513" />
      <feComposite
         in="SourceGraphic"
         operator="in"
         result="result6"
         in2="result8"
         id="feComposite5515" />
      <feComposite
         in="result6"
         operator="arithmetic"
         result="result2"
         in2="result7"
         k3="1"
         id="feComposite5517"
         k1="0"
         k2="0"
         k4="0" />
      <feComposite
         in2="result6"
         operator="in"
         in="result2"
         result="fbSourceGraphic"
         id="feComposite5519" />
      <feComposite
         in2="fbSourceGraphic"
         in="fbSourceGraphic"
         k2="2.5"
         operator="arithmetic"
         id="feComposite5521"
         k1="0"
         k3="0"
         k4="0" />
    </filter>
  </defs>
  <sodipodi:namedview
     id="base"
     pagecolor="#ffffff"
     bordercolor="#666666"
     borderopacity="1.0"
     inkscape:pageopacity="0.0"
     inkscape:pageshadow="2"
     inkscape:zoom="0.49497475"
     inkscape:cx="-154.34203"
     inkscape:cy="268.94375"
     inkscape:document-units="mm"
     inkscape:current-layer="g4620"
     showgrid="false"
     fit-margin-top="0"
     fit-margin-left="0"
     fit-margin-right="0"
     fit-margin-bottom="0"
     inkscape:window-width="1366"
     inkscape:window-height="705"
     inkscape:window-x="-8"
     inkscape:window-y="-8"
     inkscape:window-maximized="1" />
  <metadata
     id="metadata952">
    <rdf:RDF>
      <cc:Work
         rdf:about="">
        <dc:format>image/svg+xml</dc:format>
        <dc:type
           rdf:resource="http://purl.org/dc/dcmitype/StillImage" />
        <dc:title />
      </cc:Work>
    </rdf:RDF>
  </metadata>
  <g
     inkscape:label="Layer 1"
     inkscape:groupmode="layer"
     id="layer1"
     style="display:inline"
     transform="translate(-67.012987,-69.204836)" />
  <g
     inkscape:groupmode="layer"
     id="layer4"
     inkscape:label="Layer 2"
     transform="translate(-67.012987,-69.204836)"
     style="display:inline" />
  <g
     inkscape:groupmode="layer"
     id="layer5"
     inkscape:label="Layer 3"
     style="display:inline"
     transform="translate(10.205762,47.545159)">
    <g
       transform="matrix(0.26458333,0,0,0.26458333,-10.207085,-47.545159)"
       id="g4620">
      <path
         inkscape:connector-curvature="0"
         style="fill:#00a0ff;fill-opacity:1"
         d="M 204.385,408.759 C 146.264,408.759 90.71,383.891 51.967,340.532 18.46,303.057 0.005,254.703 0.005,204.379 0.005,91.683 91.689,0 204.385,0 c 50.317,0 98.674,18.453 136.163,51.964 43.348,38.761 68.207,94.314 68.207,152.415 0,112.695 -91.68,204.38 -204.37,204.38"
         id="path4608" />
      <path
         inkscape:connector-curvature="0"
         style="fill:#3b546e;fill-opacity:1"
         d="m 377.754,204.379 c 0,18.08 -2.77,35.52 -7.909,51.901 -20.39,65.09 -78.11,113.66 -148.081,120.609 -5.719,0.58 -11.51,0.87 -17.379,0.87 -51.392,0 -97.561,-22.359 -129.301,-57.879 -0.26,-0.29 -0.521,-0.591 -0.79,-0.881 -26.95,-30.56 -43.29,-70.68 -43.29,-114.62 0,-95.749 77.621,-173.38 173.381,-173.38 43.95,0 84.069,16.35 114.629,43.29 0.29,0.27 0.591,0.53 0.881,0.79 35.509,31.759 57.859,77.91 57.859,129.3"
         id="path4610" />
      <path
         inkscape:connector-curvature="0"
         style="fill:#2a3e4a;fill-opacity:0.50196081"
         d="m 317.945,204.379 -115.563,18.269 -54.777,80.082 74.159,74.159 c 69.97,-6.949 127.69,-55.519 148.081,-120.609 l -51.9,-51.901"
         id="path4612" />
      <polyline
         style="fill:#00a0ff;fill-opacity:1"
         points="147.602,106.035 317.94,204.381 147.602,302.724 147.602,106.035  "
         id="polyline4614" />
      <path
         inkscape:connector-curvature="0"
         style="fill:#c29100"
         d="m 77.538,322.568 c 0.045,0.048 0.087,0.093 0.132,0.142 -0.045,-0.049 -0.086,-0.093 -0.132,-0.142 m -3.062,-3.371 c 1.001,1.132 2.022,2.255 3.052,3.36 -0.824,-0.885 -1.637,-1.776 -2.443,-2.677 -0.202,-0.225 -0.403,-0.456 -0.609,-0.683 M 31.036,207.746 c 0,0.016 10e-4,0.035 10e-4,0.052 0,-0.019 -10e-4,-0.033 -10e-4,-0.052 m -0.011,-0.625 c 0.001,0.039 0.001,0.076 0.002,0.114 -0.001,-0.04 -0.001,-0.074 -0.002,-0.114 m -0.008,-0.592 c 0.001,0.071 0.002,0.142 0.003,0.213 -0.001,-0.07 -0.002,-0.144 -0.003,-0.213 m -0.005,-0.469 c 0.001,0.084 0.002,0.164 0.003,0.248 -0.001,-0.083 -0.002,-0.165 -0.003,-0.248 m -0.004,-0.556 c 0.001,0.1 0.001,0.198 0.002,0.299 -0.001,-0.099 -0.002,-0.2 -0.002,-0.299 m -0.003,-0.563 c 0,0.136 0.001,0.274 0.002,0.41 -0.001,-0.137 -0.002,-0.274 -0.002,-0.41 m -10e-4,-0.549 c 0,0.146 0,0.286 10e-4,0.432 -10e-4,-0.142 -10e-4,-0.29 -10e-4,-0.432 M 219.458,31.645 c 0.005,0 0.008,0.001 0.013,0.001 -0.003,0 -0.009,0 -0.013,-0.001 m -0.613,-0.051 c 0.013,10e-4 0.025,0.002 0.038,0.003 -0.013,-0.001 -0.025,-0.002 -0.038,-0.003 m -0.94,-0.075 c 0.021,0.002 0.039,0.003 0.06,0.005 -0.019,-0.002 -0.041,-0.004 -0.06,-0.005 m -0.591,-0.045 c 0.024,0.002 0.044,0.003 0.067,0.005 -0.022,-0.002 -0.045,-0.003 -0.067,-0.005 m -0.964,-0.068 c 0.037,0.003 0.073,0.005 0.11,0.008 -0.038,-0.003 -0.072,-0.006 -0.11,-0.008 m -0.575,-0.038 c 0.037,0.002 0.08,0.005 0.117,0.008 -0.038,-0.003 -0.079,-0.006 -0.117,-0.008 m -0.304,-0.02 c 0.01,0.001 0.019,0.001 0.029,0.002 -0.009,-0.001 -0.019,-0.001 -0.029,-0.002 m -0.665,-0.041 c 0.048,0.003 0.09,0.005 0.138,0.008 -0.045,-0.002 -0.093,-0.005 -0.138,-0.008 m -0.562,-0.032 c 0.048,0.003 0.088,0.005 0.136,0.008 -0.045,-0.003 -0.092,-0.006 -0.136,-0.008 m -0.453,-0.025 c 0.066,0.004 0.132,0.007 0.198,0.011 -0.064,-0.004 -0.134,-0.007 -0.198,-0.011 m -0.546,-0.028 c 0.066,0.003 0.134,0.007 0.2,0.01 -0.068,-0.003 -0.133,-0.007 -0.2,-0.01 m -0.562,-0.028 c 0.085,0.004 0.171,0.008 0.256,0.012 -0.087,-0.004 -0.169,-0.007 -0.256,-0.012 m -0.505,-0.023 c 0.098,0.004 0.203,0.009 0.301,0.014 -0.099,-0.005 -0.201,-0.009 -0.301,-0.014 m -0.474,-0.02 c 0.074,0.003 0.145,0.006 0.219,0.009 -0.07,-0.003 -0.149,-0.006 -0.219,-0.009 m -0.561,-0.022 c 0.112,0.004 0.226,0.009 0.337,0.013 -0.112,-0.005 -0.224,-0.009 -0.337,-0.013 m -0.536,-0.02 c 0.117,0.004 0.233,0.008 0.35,0.013 -0.115,-0.005 -0.234,-0.009 -0.35,-0.013 m -0.46,-0.016 c 0.09,0.003 0.185,0.006 0.275,0.009 -0.093,-0.003 -0.181,-0.006 -0.275,-0.009 m -0.546,-0.017 c 0.125,0.004 0.244,0.007 0.369,0.011 -0.122,-0.003 -0.246,-0.007 -0.369,-0.011 m -0.526,-0.014 c 0.115,0.003 0.229,0.006 0.344,0.01 -0.116,-0.004 -0.228,-0.007 -0.344,-0.01 m -0.487,-0.013 c 0.104,0.002 0.211,0.005 0.314,0.008 -0.102,-0.003 -0.211,-0.005 -0.314,-0.008 m -0.539,-0.012 c 0.134,0.003 0.264,0.006 0.397,0.009 -0.132,-0.003 -0.265,-0.006 -0.397,-0.009 m -0.538,-0.01 c 0.131,0.002 0.259,0.005 0.39,0.007 -0.132,-0.002 -0.258,-0.005 -0.39,-0.007 m -0.477,-0.008 c 0.12,0.002 0.242,0.004 0.363,0.006 -0.123,-0.002 -0.241,-0.004 -0.363,-0.006 m -0.547,-0.007 c 0.139,0.002 0.283,0.004 0.422,0.006 -0.139,-0.003 -0.283,-0.005 -0.422,-0.006 m -0.551,-0.006 c 0.147,0.001 0.297,0.003 0.445,0.005 -0.149,-0.002 -0.296,-0.004 -0.445,-0.005 m -0.467,-0.003 c 0.142,0.001 0.289,0.002 0.431,0.003 -0.142,-0.001 -0.288,-0.002 -0.431,-0.003 M 204.936,31 c 0.147,0 0.298,0.001 0.446,0.002 -0.149,-10e-4 -0.297,-10e-4 -0.446,-0.002 m -0.551,-0.001 c 0.153,0 0.309,0 0.461,0.001 -0.156,0 -0.308,-0.001 -0.463,-0.001 m 0,0 c -95.758,0 -173.379,77.619 -173.379,173.37 0,0.003 0,0.003 0,0.006 0,-95.746 77.621,-173.376 173.381,-173.376 -0.002,0 -0.002,0 -0.002,0"
         id="path4616" />
      <path
         inkscape:connector-curvature="0"
         style="fill:#2a3e4a;fill-opacity:0.78431374"
         d="m 204.385,30.999 c -95.76,0 -173.381,77.63 -173.381,173.38 0,0 0,0.01 0,0.014 0,0.142 0,0.289 10e-4,0.432 0,0.039 0,0.078 0,0.117 0,0.137 0.001,0.273 0.002,0.41 0,0.052 10e-4,0.102 10e-4,0.153 0.001,0.099 0.001,0.2 0.002,0.299 10e-4,0.084 10e-4,0.173 0.002,0.257 0.001,0.083 0.002,0.165 0.003,0.248 10e-4,0.071 0.002,0.15 0.003,0.221 10e-4,0.07 0.002,0.143 0.003,0.213 0.002,0.126 0.004,0.254 0.005,0.379 0.001,0.04 0.001,0.074 0.002,0.114 0.003,0.171 0.006,0.34 0.009,0.511 0,0.019 0.001,0.033 0.001,0.052 0.827,42.702 17.084,81.614 43.439,111.399 0.206,0.227 0.407,0.458 0.609,0.683 0.806,0.902 1.619,1.793 2.443,2.677 0.004,0.004 0.006,0.007 0.01,0.011 0.046,0.049 0.087,0.093 0.132,0.142 4.65,4.975 9.592,9.679 14.795,14.079 -25.531,-30.2 -40.921,-69.239 -40.921,-111.88 0,-95.751 77.621,-173.37 173.381,-173.37 42.629,0 81.68,15.39 111.869,40.919 -28.747,-33.992 -70.353,-56.765 -117.322,-60.812 -0.005,0 -0.008,-10e-4 -0.013,-10e-4 -0.19,-0.016 -0.385,-0.033 -0.575,-0.049 -0.013,-0.001 -0.025,-0.002 -0.038,-0.003 -0.295,-0.024 -0.584,-0.048 -0.88,-0.07 -0.021,-0.002 -0.039,-0.003 -0.06,-0.005 -0.175,-0.013 -0.349,-0.027 -0.524,-0.04 -0.024,-0.002 -0.044,-0.003 -0.067,-0.005 -0.283,-0.021 -0.57,-0.041 -0.854,-0.061 -0.037,-0.003 -0.073,-0.005 -0.11,-0.008 -0.153,-0.01 -0.305,-0.021 -0.458,-0.031 -0.037,-0.002 -0.08,-0.005 -0.117,-0.008 -0.092,-0.006 -0.182,-0.012 -0.275,-0.018 -0.01,-10e-4 -0.019,-10e-4 -0.029,-0.002 -0.176,-0.011 -0.352,-0.022 -0.527,-0.032 -0.047,-0.003 -0.09,-0.005 -0.138,-0.008 -0.144,-0.009 -0.283,-0.017 -0.427,-0.025 -0.048,-0.003 -0.088,-0.005 -0.136,-0.008 -0.086,-0.005 -0.169,-0.009 -0.255,-0.014 -0.066,-0.004 -0.131,-0.007 -0.198,-0.011 -0.115,-0.006 -0.231,-0.012 -0.346,-0.018 -0.066,-0.003 -0.134,-0.007 -0.2,-0.01 -0.102,-0.005 -0.203,-0.01 -0.306,-0.015 -0.085,-0.004 -0.171,-0.008 -0.256,-0.012 -0.067,-0.003 -0.136,-0.006 -0.204,-0.009 -0.098,-0.005 -0.203,-0.009 -0.301,-0.014 -0.087,-0.004 -0.169,-0.007 -0.255,-0.011 -0.074,-0.003 -0.145,-0.006 -0.219,-0.009 -0.077,-0.003 -0.146,-0.006 -0.223,-0.009 -0.112,-0.004 -0.226,-0.009 -0.337,-0.013 -0.061,-0.002 -0.125,-0.005 -0.186,-0.007 -0.117,-0.004 -0.233,-0.009 -0.35,-0.013 -0.061,-0.002 -0.124,-0.004 -0.185,-0.006 -0.09,-0.003 -0.185,-0.006 -0.275,-0.009 -0.058,-0.002 -0.119,-0.004 -0.177,-0.006 -0.125,-0.004 -0.244,-0.008 -0.369,-0.011 -0.061,-0.002 -0.121,-0.004 -0.182,-0.005 -0.115,-0.003 -0.229,-0.006 -0.344,-0.01 -0.058,-0.002 -0.114,-0.003 -0.172,-0.004 -0.104,-0.003 -0.21,-0.005 -0.314,-0.008 -0.048,-0.001 -0.094,-0.002 -0.142,-0.003 -0.133,-0.003 -0.263,-0.006 -0.397,-0.009 -0.048,-10e-4 -0.1,-0.002 -0.148,-0.003 -0.131,-0.003 -0.259,-0.005 -0.39,-0.007 -0.036,-0.001 -0.079,-0.001 -0.115,-0.002 -0.12,-0.002 -0.242,-0.004 -0.363,-0.006 -0.042,-10e-4 -0.082,-10e-4 -0.124,-0.002 -0.139,-0.002 -0.283,-0.004 -0.422,-0.006 -0.036,0 -0.071,-10e-4 -0.106,-10e-4 -0.147,-0.002 -0.297,-0.003 -0.445,-0.005 -0.013,0 -0.023,0 -0.036,0 -0.142,-10e-4 -0.289,-0.002 -0.431,-0.003 -0.029,0 -0.058,0 -0.088,-10e-4 C 205.237,31 205.086,31 204.938,30.999 c -0.029,0 -0.06,0 -0.09,0 -0.154,0.001 -0.31,0 -0.463,0 -0.002,0 -0.002,0 -0.002,0"
         id="path4618" />
    </g>
    <g
       transform="matrix(0.26458333,0,0,0.26458333,-236.47558,45.768544)"
       id="g4622" />
    <g
       transform="matrix(0.26458333,0,0,0.26458333,-236.47558,45.768544)"
       id="g4624" />
    <g
       transform="matrix(0.26458333,0,0,0.26458333,-236.47558,45.768544)"
       id="g4626" />
    <g
       transform="matrix(0.26458333,0,0,0.26458333,-236.47558,45.768544)"
       id="g4628" />
    <g
       transform="matrix(0.26458333,0,0,0.26458333,-236.47558,45.768544)"
       id="g4630" />
    <g
       transform="matrix(0.26458333,0,0,0.26458333,-236.47558,45.768544)"
       id="g4632" />
    <g
       transform="matrix(0.26458333,0,0,0.26458333,-236.47558,45.768544)"
       id="g4634" />
    <g
       transform="matrix(0.26458333,0,0,0.26458333,-236.47558,45.768544)"
       id="g4636" />
    <g
       transform="matrix(0.26458333,0,0,0.26458333,-236.47558,45.768544)"
       id="g4638" />
    <g
       transform="matrix(0.26458333,0,0,0.26458333,-236.47558,45.768544)"
       id="g4640" />
    <g
       transform="matrix(0.26458333,0,0,0.26458333,-236.47558,45.768544)"
       id="g4642" />
    <g
       transform="matrix(0.26458333,0,0,0.26458333,-236.47558,45.768544)"
       id="g4644" />
    <g
       transform="matrix(0.26458333,0,0,0.26458333,-236.47558,45.768544)"
       id="g4646" />
    <g
       transform="matrix(0.26458333,0,0,0.26458333,-236.47558,45.768544)"
       id="g4648" />
    <g
       transform="matrix(0.26458333,0,0,0.26458333,-236.47558,45.768544)"
       id="g4650" />
  </g>
</svg>
