<?xml version="1.0" encoding="UTF-8" standalone="no"?>
<svg
   xmlns:dc="http://purl.org/dc/elements/1.1/"
   xmlns:cc="http://creativecommons.org/ns#"
   xmlns:rdf="http://www.w3.org/1999/02/22-rdf-syntax-ns#"
   xmlns:svg="http://www.w3.org/2000/svg"
   xmlns="http://www.w3.org/2000/svg"
   xmlns:sodipodi="http://sodipodi.sourceforge.net/DTD/sodipodi-0.dtd"
   xmlns:inkscape="http://www.inkscape.org/namespaces/inkscape"
   inkscape:export-ydpi="431.99997"
   inkscape:export-xdpi="431.99997"
   inkscape:export-filename="D:\Data\Spaces\harmony\res\logo\logo-2.png"
   inkscape:version="0.92.1 r15371"
   height="240"
   width="210.00002"
   sodipodi:docname="logo-2.svg"
   id="svg4"
   xml:space="preserve"
   viewBox="0 0 210.00002 239.99999"
   version="1.1"
   enable-background="new 0 0 283.05 314.406"><metadata
   id="metadata10"><rdf:RDF><cc:Work
       rdf:about=""><dc:format>image/svg+xml</dc:format><dc:type
         rdf:resource="http://purl.org/dc/dcmitype/StillImage" /><dc:title></dc:title></cc:Work></rdf:RDF></metadata><defs
   id="defs8"><filter
     inkscape:label="Evanescent"
     inkscape:menu="Blurs"
     inkscape:menu-tooltip="Blur the contents of objects, preserving the outline and adding progressive transparency at edges"
     style="color-interpolation-filters:sRGB"
     id="filter4885"><feGaussianBlur
       result="result6"
       stdDeviation="3"
       in="SourceGraphic"
       id="feGaussianBlur4879" /><feColorMatrix
       values="1 0 0 0 0 0 1 0 0 0 0 0 1 0 0 0 0 0 1 0 "
       result="result7"
       in="SourceGraphic"
       id="feColorMatrix4881" /><feComposite
       operator="in"
       in="result6"
       in2="result7"
       id="feComposite4883" /></filter><filter
     style="color-interpolation-filters:sRGB"
     inkscape:label="Drop Shadow"
     id="filter5045"><feFlood
       flood-opacity="0.498039"
       flood-color="rgb(0,0,0)"
       result="flood"
       id="feFlood5035" /><feComposite
       in="SourceGraphic"
       in2="flood"
       operator="in"
       result="composite1"
       id="feComposite5037" /><feGaussianBlur
       in="composite1"
       stdDeviation="3"
       result="blur"
       id="feGaussianBlur5039" /><feOffset
       dx="1"
       dy="1"
       result="offset"
       id="feOffset5041" /><feComposite
       in="SourceGraphic"
       in2="offset"
       operator="over"
       result="composite2"
       id="feComposite5043" /></filter><filter
     style="color-interpolation-filters:sRGB"
     inkscape:label="Drop Shadow"
     id="filter2101"><feFlood
       flood-opacity="0.25098"
       flood-color="rgb(0,0,0)"
       result="flood"
       id="feFlood2091" /><feComposite
       in="SourceGraphic"
       in2="flood"
       operator="in"
       result="composite1"
       id="feComposite2093" /><feGaussianBlur
       in="composite1"
       stdDeviation="3"
       result="blur"
       id="feGaussianBlur2095" /><feOffset
       dx="1"
       dy="1"
       result="offset"
       id="feOffset2097" /><feComposite
       in="SourceGraphic"
       in2="offset"
       operator="over"
       result="composite2"
       id="feComposite2099" /></filter></defs><sodipodi:namedview
   inkscape:current-layer="g2068"
   inkscape:window-maximized="1"
   inkscape:window-y="-8"
   inkscape:window-x="-8"
   inkscape:cy="16.295294"
   inkscape:cx="154.32802"
   inkscape:zoom="1"
   showgrid="false"
   id="namedview6"
   inkscape:window-height="705"
   inkscape:window-width="1366"
   inkscape:pageshadow="2"
   inkscape:pageopacity="0"
   guidetolerance="10"
   gridtolerance="10"
   objecttolerance="10"
   borderopacity="1"
   bordercolor="#666666"
   pagecolor="#ffffff"
   fit-margin-top="0"
   fit-margin-left="0"
   fit-margin-right="0"
   fit-margin-bottom="0" />

<g
   inkscape:groupmode="layer"
   id="layer2"
   inkscape:label="Layer 1"
   style="display:inline"
   transform="translate(-316.57945,-68.314218)"><g
     id="g4913"
     style="filter:url(#filter5045)"><g
       id="g2068"><g
         id="g2089"
         style="filter:url(#filter2101)"
         transform="translate(4)"><path
           inkscape:connector-curvature="0"
           id="path3990"
           d="M 334.07945,88.314222 V 288.31421 l 199.65801,-99.99902 z m 35.90776,58.223818 c 0.81724,4.57016 1.22241,6.8374 2.03183,11.33542 0.8077,11.26103 1.21678,16.84326 2.02279,27.892 0.40043,0.39884 0.59373,0.598 0.99554,0.99713 0.80055,-4.70439 1.20618,-7.03618 2.00469,-11.64358 0.40248,-6.96167 0.59908,-10.4301 0.99781,-17.31818 0.79679,1.67014 1.19523,2.4978 1.98658,4.14161 0.39702,9.23257 0.59333,13.82693 0.98424,22.96133 0.39704,0.38612 0.59492,0.57816 0.9865,0.95984 0.78964,-3.01533 1.18113,-4.50629 1.96396,-7.45096 v -2.80293 c 0.78247,3.42392 1.17129,5.11624 1.95037,8.46181 1.55235,-2.17717 2.3271,-3.24025 3.86003,-5.30949 0.3858,-10.79804 0.57662,-16.16808 0.95934,-26.83011 0.38375,-0.26608 0.57266,-0.3962 0.9571,-0.65755 0.75863,1.26094 1.13858,1.88717 1.8938,3.12092 v 13.18246 c 0.38069,0.40829 0.56771,0.60945 0.94804,1.01478 0.37489,0.053 0.56548,0.0769 0.93899,0.13151 0.75352,-6.48034 1.12449,-9.67931 1.87118,-15.97753 0.74602,3.62555 1.1185,5.41001 1.86214,8.93681 1.47603,1.32335 2.21552,1.97477 3.67449,3.24459 v 1.63701 c 0.36568,0.39706 0.54333,0.59125 0.90731,0.98534 0.36227,-0.25956 0.5473,-0.38846 0.90958,-0.64185 v -1.60952 c 0.72148,1.43567 1.08014,2.14431 1.79652,3.54097 v 5.53914 c 0.35715,0.36276 0.53713,0.5441 0.896,0.90094 0.35476,-4.34989 0.53861,-6.5118 0.89373,-10.78778 v -0.77533 c 0.71024,2.03644 1.06368,3.03955 1.7671,5.01507 0.3534,-1.45932 0.52878,-2.18609 0.88016,-3.61556 v -2.27493 c 1.05138,1.79075 1.58375,2.66589 2.62012,4.38303 v 9.58259 c 0.34456,0.33942 0.51784,0.50572 0.86205,0.8401 0.34591,-0.2516 0.51526,-0.37438 0.8598,-0.61829 0.68502,0.95378 1.03099,1.41847 1.71054,2.33971 0.3391,-0.24392 0.50655,-0.36537 0.84395,-0.60456 0,-0.84113 0.005,-1.26097 0.005,-2.10416 0.67616,1.49834 1.01099,2.23226 1.6834,3.67444 0.66897,-7.0761 1.00209,-10.53507 1.66528,-17.29658 v -2.01584 c 0.99516,4.39336 1.48906,6.52938 2.46851,10.6602 v 9.08405 c 0.32377,0.29386 0.48932,0.44102 0.81002,0.73017 0.32411,-0.22499 0.49203,-0.33444 0.81681,-0.55352 v -1.26408 c 0.64719,0.0798 0.96505,0.1225 1.60646,0.21003 0.31796,-0.45353 0.47881,-0.67752 0.79644,-1.11686 v -1.82936 c 0.95732,0.17502 1.42622,0.26217 2.36444,0.44163 0.3115,2.16948 0.4706,3.24133 0.77834,5.35464 0.31048,0.26283 0.46551,0.39307 0.77155,0.6497 0.31218,-0.88371 0.4637,-1.32037 0.77381,-2.18072 0,-0.6726 -0.007,-1.01348 -0.007,-1.68608 0.61548,1.00106 0.92809,1.49048 1.53405,2.43982 0,1.09006 -0.005,1.63584 -0.005,2.72442 0.30264,0.24067 0.45197,0.35932 0.75119,0.59082 0.30299,-0.19424 0.4582,-0.29316 0.75571,-0.4809 v -1.05797 c 0.59846,0.90381 0.89717,1.3426 1.48881,2.19053 0.58687,-3.86001 0.88373,-5.72222 1.46617,-9.31762 v -0.49464 c 0.5862,2.15027 0.87225,3.1878 1.44582,5.19762 0.86496,-0.60992 1.29058,-0.89545 2.13817,-1.4211 v -9.46287 c 0.56096,4.60593 0.83848,6.83042 1.39604,11.09399 0,0.52065 0.005,0.77976 0.005,1.29744 0.27537,0.21877 0.41494,0.32347 0.69236,0.53781 0.55142,0.93072 0.82372,1.37516 1.36662,2.23372 0.27195,-5.48992 0.40874,-8.1713 0.68105,-13.41407 0.26684,-0.008 0.40095,-0.0101 0.66747,-0.0101 0.53574,6.0357 0.7956,8.91715 1.32589,14.4053 0.26208,0.16291 0.39628,0.24254 0.65391,0.40042 0.26174,-0.13481 0.39287,-0.19391 0.6471,-0.31601 l 0.0159,0.0177 c 0.26242,0.0146 0.39157,0.0235 0.63354,0.0235 v 4.42033 c -0.25663,0.0316 -0.38607,0.0476 -0.64711,0.0805 v -1.0462 c -0.25424,-0.12211 -0.38729,-0.18113 -0.64937,-0.31209 -0.52107,5.2064 -0.78314,7.94753 -1.31684,13.69083 v 0.37686 c -0.52893,0.30659 -0.79502,0.46256 -1.33043,0.76944 V 191.5988 c -0.2723,-0.12684 -0.40682,-0.19297 -0.67879,-0.32779 -0.27264,0.35182 -0.40478,0.52893 -0.67878,0.89702 0,0.49875 -0.005,0.74567 -0.005,1.24444 -0.27264,0.0423 -0.40816,0.0682 -0.68557,0.11384 -0.55176,4.49684 -0.83089,6.84371 -1.39151,11.71425 0,0.5304 0.002,0.79139 0.002,1.32296 -0.55891,-2.88553 -0.84557,-4.3933 -1.4096,-7.5334 -0.85167,0.98187 -1.28043,1.4945 -2.14949,2.56152 v 1.45447 c -0.28865,0.10673 -0.43367,0.16031 -0.72404,0.26498 -0.29411,-4.64378 -0.44589,-7.00305 -0.73761,-11.81239 -0.29583,-0.1768 -0.44214,-0.26813 -0.73762,-0.45735 -0.29513,0.22647 -0.44439,0.33903 -0.73987,0.56727 v 0.52211 c -0.29753,0.0251 -0.44689,0.0367 -0.74441,0.0647 -0.29752,-0.18656 -0.44801,-0.28235 -0.74892,-0.47305 -0.60425,3.9082 -0.91203,5.92024 -1.52275,10.06939 0,0.21937 0,0.33316 0,0.55548 -0.91369,-2.18189 -1.37126,-3.33455 -2.30334,-5.73346 -0.61993,2.86839 -0.93605,4.34256 -1.56347,7.36262 -0.31729,1.51255 -0.47125,2.28137 -0.78513,3.83147 v 1.80386 c -0.31933,-4.94742 -0.47484,-7.45114 -0.79418,-12.53276 -0.31764,-0.19897 -0.47847,-0.29986 -0.79644,-0.50445 -0.31899,0.28914 -0.48061,0.43454 -0.80097,0.73018 0,0.75214 -0.007,1.12405 -0.007,1.87647 -0.63866,-1.64527 -0.964,-2.48466 -1.61324,-4.21421 -0.32479,6.7018 -0.4901,10.09359 -0.81455,16.95503 v 1.9491 c -0.98117,0.87956 -1.47112,1.32949 -2.46625,2.24157 -0.33159,-7.93909 -0.49796,-11.95515 -0.83265,-20.074 -0.33193,-0.23622 -0.499,-0.35593 -0.83263,-0.59866 -0.3374,0.85592 -0.50374,1.28803 -0.83944,2.16109 v 2.08061 c -0.67274,-0.45649 -1.01322,-0.69402 -1.69244,-1.1777 -0.34284,0.89316 -0.5105,1.34284 -0.85301,2.25138 v 2.14539 c -0.34079,0.0597 -0.51501,0.0937 -0.85752,0.1531 -0.68536,0.69418 -1.02968,1.04253 -1.72186,1.76066 -0.34965,4.18877 -0.51841,6.30358 -0.86433,10.57188 -0.34965,0.40031 -0.52876,0.60318 -0.88015,1.00497 v 2.25532 c -1.39728,-0.45146 -2.10435,-0.69785 -3.52516,-1.23267 v -8.55997 c -0.35511,-0.23948 -0.53727,-0.36298 -0.89374,-0.61044 -0.71397,3.27521 -1.07085,4.9364 -1.79199,8.31657 -0.71569,-1.09184 -1.08295,-1.64331 -1.80784,-2.77742 -0.36397,1.05132 -0.54387,1.58362 -0.90956,2.6518 v 2.4516 c -0.3609,0.0988 -0.54764,0.14595 -0.90958,0.24142 -0.3684,0.42366 -0.55541,0.63596 -0.92314,1.06583 0,0.99635 0.002,1.49432 0.002,2.48888 -1.83352,0.52389 -2.76647,0.77905 -4.63611,1.27781 0,-6.54215 0.002,-9.81443 0.002,-16.35834 -0.37489,-0.28915 -0.56466,-0.44023 -0.94125,-0.7341 -0.75215,1.14654 -1.12827,1.72364 -1.88929,2.89323 0,5.9745 0.002,8.96519 0.002,14.94117 -1.13419,0.29418 -1.70443,0.43565 -2.8509,0.72036 -0.38272,-11.01918 -0.57561,-16.56323 -0.95935,-27.71928 -1.53463,-1.35171 -2.30766,-2.04901 -3.86002,-3.47227 -0.38987,5.19457 -0.58259,7.80266 -0.97519,13.05488 v 0.92843 c -0.77738,-3.25511 -1.16923,-4.89902 -1.95717,-8.23217 0,-3.3849 0.002,-5.07722 0.002,-8.46182 -0.3909,-0.36927 -0.59163,-0.55424 -0.98424,-0.92647 -0.78453,10.97957 -1.1777,16.52803 -1.97074,27.74676 -0.79134,3.18888 -1.19012,4.79599 -1.98657,8.04962 -0.79849,-13.75069 -1.19509,-20.70416 -1.99564,-34.74429 -0.40044,-0.38345 -0.59964,-0.57764 -1.00007,-0.96376 -1.20407,10.6103 -1.80813,15.99372 -3.02513,26.91059 -0.40011,3.63975 -0.60719,5.46525 -1.01139,9.139 v 3.00118 c -0.81146,0.15345 -1.21979,0.23078 -2.03635,0.38275 0,-7.26501 -0.002,-10.90139 -0.002,-18.16611 -0.4059,-0.36128 -0.61093,-0.54278 -1.01818,-0.90879 -0.40727,0.44526 -0.61397,0.67002 -1.02496,1.11882 v 2.03743 c -0.81828,-9.27929 -1.22665,-13.95984 -2.05446,-23.39905 -0.40931,-0.4083 -0.61816,-0.61092 -1.02949,-1.02069 -1.05481,14.09305 -1.66745,22.26138 -2.59749,34.85814 v -64.54586 c 0.16018,0.17829 0.32623,0.36665 0.52492,0.581 0.41443,10.44443 0.62152,15.64554 1.03629,26.00572 0.41305,0.42071 0.6239,0.62335 1.03628,1.03637 1.24086,-7.42319 1.85602,-11.08701 3.08395,-18.31921 0.41099,0.0346 0.61735,0.0478 1.02496,0.0824 0.40725,-8.88725 0.61488,-13.31316 1.02044,-22.11732 0.40725,-0.33172 0.61069,-0.49496 1.01592,-0.82047 z"
           style="display:inline;opacity:0.997;fill:#4b4b4b;fill-opacity:0.8627451;stroke-width:2.33832908;stroke-opacity:0"
           transform="matrix(0.87649877,0,0,1,41.259225,0)" /><path
           inkscape:connector-curvature="0"
           id="path2070"
           d="m 334.07945,88.314218 175,100.000972 -22,12.49901 z"
           style="display:inline;fill:#000000;fill-opacity:0.1254902;fill-rule:evenodd;stroke:none;stroke-width:1px;stroke-linecap:butt;stroke-linejoin:miter;stroke-opacity:1" /></g></g></g><g
     style="display:none"
     display="none"
     id="g3998"
     transform="matrix(2.1671409,0,0,2.1671409,-412.61689,-919.44457)"><rect
       style="opacity:0.997;fill:#cacaca;stroke-opacity:0"
       x="128.34"
       y="351.39999"
       width="541.02002"
       height="161.91"
       ry="21.719999"
       id="rect3996" /></g></g></svg>