<?xml version="1.0" encoding="UTF-8" standalone="no"?>
<svg
   xmlns:dc="http://purl.org/dc/elements/1.1/"
   xmlns:cc="http://creativecommons.org/ns#"
   xmlns:rdf="http://www.w3.org/1999/02/22-rdf-syntax-ns#"
   xmlns:svg="http://www.w3.org/2000/svg"
   xmlns="http://www.w3.org/2000/svg"
   xmlns:sodipodi="http://sodipodi.sourceforge.net/DTD/sodipodi-0.dtd"
   xmlns:inkscape="http://www.inkscape.org/namespaces/inkscape"
   enable-background="new 0 0 283.05 314.406"
   version="1.1"
   viewBox="0 0 240.00002 240"
   xml:space="preserve"
   id="svg4"
   sodipodi:docname="logo-2.svg"
   width="240.00002"
   height="240"
   inkscape:version="0.92.1 r15371"
   inkscape:export-filename="D:\Data\Spaces\harmony\res\logo\logo-2.png"
   inkscape:export-xdpi="204.8"
   inkscape:export-ydpi="204.8"><metadata
   id="metadata10"><rdf:RDF><cc:Work
       rdf:about=""><dc:format>image/svg+xml</dc:format><dc:type
         rdf:resource="http://purl.org/dc/dcmitype/StillImage" /></cc:Work></rdf:RDF></metadata><defs
   id="defs8"><filter
     inkscape:label="Evanescent"
     inkscape:menu="Blurs"
     inkscape:menu-tooltip="Blur the contents of objects, preserving the outline and adding progressive transparency at edges"
     style="color-interpolation-filters:sRGB"
     id="filter4885"><feGaussianBlur
       result="result6"
       stdDeviation="3"
       in="SourceGraphic"
       id="feGaussianBlur4879" /><feColorMatrix
       values="1 0 0 0 0 0 1 0 0 0 0 0 1 0 0 0 0 0 1 0 "
       result="result7"
       in="SourceGraphic"
       id="feColorMatrix4881" /><feComposite
       operator="in"
       in="result6"
       in2="result7"
       id="feComposite4883" /></filter><filter
     style="color-interpolation-filters:sRGB"
     inkscape:label="Drop Shadow"
     id="filter5045"><feFlood
       flood-opacity="0.498039"
       flood-color="rgb(0,0,0)"
       result="flood"
       id="feFlood5035" /><feComposite
       in="SourceGraphic"
       in2="flood"
       operator="in"
       result="composite1"
       id="feComposite5037" /><feGaussianBlur
       in="composite1"
       stdDeviation="3"
       result="blur"
       id="feGaussianBlur5039" /><feOffset
       dx="1"
       dy="1"
       result="offset"
       id="feOffset5041" /><feComposite
       in="SourceGraphic"
       in2="offset"
       operator="over"
       result="composite2"
       id="feComposite5043" /></filter></defs><sodipodi:namedview
   pagecolor="#ffffff"
   bordercolor="#666666"
   borderopacity="1"
   objecttolerance="10"
   gridtolerance="10"
   guidetolerance="10"
   inkscape:pageopacity="0"
   inkscape:pageshadow="2"
   inkscape:window-width="1366"
   inkscape:window-height="705"
   id="namedview6"
   showgrid="false"
   inkscape:zoom="0.75062179"
   inkscape:cx="-212.83731"
   inkscape:cy="129.41913"
   inkscape:window-x="-8"
   inkscape:window-y="-8"
   inkscape:window-maximized="1"
   inkscape:current-layer="g4913" />

<g
   inkscape:groupmode="layer"
   id="layer2"
   inkscape:label="Layer 1"
   style="display:inline"
   transform="translate(-192.40846,-85.314222)"><g
     id="g4913"
     style="filter:url(#filter5045)"><path
       inkscape:connector-curvature="0"
       id="path3990"
       transform="matrix(1.1584608,0,0,1.0049758,28.66119,-16.14653)"
       d="m 158.61328,120.85938 v 199.00976 l 172.34766,-99.50391 z m 30.9961,57.93554 c 0.70545,4.54753 1.0552,6.80355 1.7539,11.2793 0.69722,11.20527 1.05034,16.75986 1.7461,27.7539 0.34566,0.39687 0.51252,0.59504 0.85937,0.99219 0.69104,-4.68109 1.04119,-7.00134 1.73047,-11.58593 0.34743,-6.9272 0.51714,-10.37846 0.86133,-17.23243 0.6878,1.66187 1.03174,2.48543 1.71484,4.1211 0.34272,9.18686 0.51217,13.75847 0.84961,22.84765 0.34273,0.38421 0.51355,0.57529 0.85156,0.95508 0.68163,-3.0004 1.01957,-4.48397 1.69532,-7.41406 v -2.78906 c 0.67544,3.40697 1.01108,5.09091 1.68359,8.41992 1.34001,-2.16639 2.00879,-3.22421 3.33203,-5.2832 0.33303,-10.74458 0.49775,-16.08803 0.82812,-26.69727 0.33126,-0.26477 0.49433,-0.39424 0.82618,-0.6543 0.65486,1.2547 0.98284,1.87783 1.63476,3.10547 v 13.11719 c 0.32861,0.40627 0.49005,0.60643 0.81836,1.00976 0.32361,0.0527 0.48813,0.0765 0.81055,0.13086 0.65045,-6.44826 0.97067,-9.63139 1.61523,-15.89843 0.64397,3.6076 0.9655,5.38323 1.60742,8.89257 1.27413,1.31679 1.91247,1.96499 3.17188,3.22852 v 1.62891 c 0.31566,0.39509 0.46901,0.58832 0.7832,0.98046 0.31272,-0.25828 0.47244,-0.38654 0.78516,-0.63867 v -1.60156 c 0.62279,1.42857 0.93239,2.1337 1.55078,3.52344 v 5.51172 c 0.3083,0.36096 0.46366,0.5414 0.77344,0.89648 0.30624,-4.32836 0.46494,-6.47956 0.77148,-10.73437 v -0.77149 c 0.61309,2.02635 0.91819,3.0245 1.52539,4.99024 0.30506,-1.4521 0.45645,-2.17527 0.75977,-3.59766 v -2.26367 c 0.90756,1.78189 1.36711,2.65269 2.26172,4.36133 v 9.53515 c 0.29743,0.33773 0.44701,0.50321 0.74414,0.83594 0.29859,-0.25036 0.44478,-0.37253 0.74219,-0.61523 0.59132,0.94905 0.88996,1.41144 1.47656,2.32812 0.29272,-0.24271 0.43726,-0.36356 0.72851,-0.60156 0,-0.83697 0.004,-1.25473 0.004,-2.09375 0.58367,1.49093 0.8727,2.22121 1.45313,3.65625 0.57747,-7.04106 0.86502,-10.48291 1.4375,-17.21094 v -2.00586 c 0.85903,4.37161 1.28537,6.49705 2.13085,10.60742 v 9.03907 c 0.27948,0.29241 0.42239,0.43884 0.69922,0.72656 0.27978,-0.22388 0.42473,-0.33279 0.70508,-0.55078 v -1.25782 c 0.55867,0.0794 0.83305,0.12189 1.38672,0.20899 0.27447,-0.45129 0.41332,-0.67417 0.6875,-1.11133 v -1.82031 c 0.82637,0.17416 1.23113,0.26088 2.04102,0.43945 0.26889,2.15874 0.40623,3.22528 0.67187,5.32813 0.26801,0.26153 0.40184,0.39112 0.66602,0.64648 0.26947,-0.87933 0.40027,-1.31383 0.66796,-2.16992 0,-0.66927 -0.006,-1.00847 -0.006,-1.67774 0.53129,0.99611 0.80114,1.48311 1.32421,2.42774 0,1.08467 -0.004,1.62775 -0.004,2.71094 0.26124,0.23947 0.39015,0.35754 0.64844,0.58789 0.26154,-0.19328 0.39552,-0.29171 0.65234,-0.47852 v -1.05273 c 0.5166,0.89933 0.77445,1.33595 1.28516,2.17968 0.50659,-3.84089 0.76285,-5.69388 1.26562,-9.27148 v -0.49219 c 0.50601,2.13962 0.75294,3.17201 1.24805,5.17188 0.74665,-0.6069 1.11405,-0.89101 1.8457,-1.41406 v -9.41602 c 0.48423,4.58313 0.72379,6.7966 1.20508,11.03906 0,0.51807 0.004,0.7759 0.004,1.29102 0.2377,0.21769 0.35818,0.32187 0.59765,0.53515 0.476,0.92611 0.71105,1.36835 1.17969,2.22266 0.23475,-5.46274 0.35283,-8.13085 0.58789,-13.34766 0.23034,-0.008 0.34611,-0.01 0.57617,-0.01 0.46246,6.00582 0.68677,8.873 1.14453,14.33398 0.22623,0.1621 0.34207,0.24134 0.56446,0.39844 0.22594,-0.13415 0.33913,-0.19295 0.55859,-0.31445 l 0.0137,0.0176 c 0.22652,0.0145 0.33801,0.0234 0.54688,0.0234 v 4.39844 c -0.22153,0.0314 -0.33326,0.0474 -0.5586,0.0801 v -1.04102 c -0.21946,-0.1215 -0.33431,-0.18023 -0.56054,-0.31054 -0.4498,5.18062 -0.67602,7.90818 -1.13672,13.62304 v 0.375 c -0.45658,0.30507 -0.68627,0.46027 -1.14844,0.76563 v -13.01563 c -0.23506,-0.12621 -0.35118,-0.19202 -0.58594,-0.32617 -0.23535,0.35008 -0.34942,0.52631 -0.58594,0.89258 0,0.49628 -0.004,0.74198 -0.004,1.23828 -0.23535,0.0421 -0.35233,0.0679 -0.5918,0.11328 -0.47628,4.47457 -0.71723,6.80982 -1.20117,11.65625 0,0.52777 0.002,0.78747 0.002,1.31641 -0.48246,-2.87125 -0.72991,-4.37155 -1.21679,-7.4961 -0.73517,0.977 -1.10529,1.4871 -1.85547,2.54883 v 1.44727 c -0.24917,0.1062 -0.37435,0.15952 -0.625,0.26367 -0.25388,-4.62079 -0.3849,-6.96838 -0.63672,-11.75391 -0.25536,-0.17592 -0.38166,-0.2668 -0.63672,-0.45508 -0.25476,0.22535 -0.38361,0.33735 -0.63867,0.56446 v 0.51953 c -0.25683,0.025 -0.38576,0.0365 -0.64258,0.0644 -0.25683,-0.18563 -0.38673,-0.28095 -0.64648,-0.4707 -0.5216,3.88885 -0.78728,5.89092 -1.31446,10.01953 0,0.21829 0,0.33151 0,0.55273 -0.78871,-2.17109 -1.18369,-3.31804 -1.98828,-5.70507 -0.53513,2.85419 -0.80801,4.32106 -1.34961,7.32617 -0.27389,1.50506 -0.40679,2.27007 -0.67773,3.8125 v 1.79492 c -0.27565,-4.92292 -0.40989,-7.41424 -0.68555,-12.4707 -0.27419,-0.19799 -0.41302,-0.29838 -0.6875,-0.50196 -0.27536,0.28771 -0.41487,0.43239 -0.69141,0.72657 0,0.74841 -0.006,1.11848 -0.006,1.86718 -0.5513,-1.63713 -0.83214,-2.47236 -1.39257,-4.19335 -0.28036,6.66862 -0.42306,10.04362 -0.70313,16.87109 v 1.93945 c -0.84696,0.8752 -1.26989,1.3229 -2.1289,2.23047 -0.28624,-7.89979 -0.42985,-11.89596 -0.71876,-19.97461 -0.28653,-0.23505 -0.43074,-0.35417 -0.71874,-0.5957 -0.29125,0.85168 -0.43483,1.28165 -0.72461,2.15039 v 2.07031 c -0.58072,-0.45423 -0.87463,-0.69058 -1.46094,-1.17187 -0.29595,0.88874 -0.44067,1.33619 -0.73633,2.24023 v 2.13477 c -0.29418,0.0594 -0.44457,0.0932 -0.74023,0.15234 -0.59161,0.69075 -0.88883,1.03737 -1.48633,1.75195 -0.30182,4.16803 -0.4475,6.27237 -0.7461,10.51953 -0.30183,0.39833 -0.45644,0.6002 -0.75976,1 v 2.24415 c -1.20615,-0.44922 -1.81651,-0.69439 -3.04297,-1.22657 v -8.51758 c -0.30654,-0.2383 -0.46378,-0.36119 -0.77149,-0.60742 -0.61631,3.25899 -0.92437,4.91196 -1.54687,8.27539 -0.61779,-1.08643 -0.93482,-1.63517 -1.56055,-2.76367 -0.31419,1.04612 -0.46948,1.57578 -0.78515,2.63867 v 2.43946 c -0.31153,0.0983 -0.47273,0.14523 -0.78516,0.24023 -0.31801,0.42156 -0.47944,0.63281 -0.79687,1.06055 0,0.99142 0.002,1.48692 0.002,2.47656 -1.58272,0.5213 -2.38805,0.77519 -4.00195,1.27148 0,-6.50976 0.002,-9.76583 0.002,-16.27734 -0.32361,-0.28772 -0.48742,-0.43805 -0.8125,-0.73047 -0.64927,1.14086 -0.97394,1.71511 -1.63086,2.87891 0,5.94491 0.002,8.9208 0.002,14.86719 -0.97905,0.29272 -1.47129,0.43349 -2.46094,0.71679 -0.33037,-10.96462 -0.49687,-16.48122 -0.82812,-27.58203 -1.32472,-1.34502 -1.99201,-2.03887 -3.33203,-3.45508 -0.33654,5.16885 -0.5029,7.76402 -0.8418,12.99024 v 0.92383 c -0.67104,-3.23899 -1.00929,-4.87476 -1.68945,-8.19141 0,-3.36814 0.002,-5.05208 0.002,-8.41992 -0.33743,-0.36744 -0.5107,-0.5515 -0.84961,-0.92188 -0.67722,10.9252 -1.01661,16.44619 -1.70117,27.60938 -0.6831,3.17309 -1.02733,4.77224 -1.71484,8.00976 -0.68927,-13.68261 -1.03162,-20.60165 -1.72266,-34.57226 -0.34567,-0.38156 -0.51762,-0.57478 -0.86328,-0.95899 -1.03937,10.55776 -1.5608,15.91453 -2.61133,26.77735 -0.34538,3.62173 -0.52414,5.43819 -0.87305,9.09375 v 2.98632 c -0.70046,0.15269 -1.05294,0.22964 -1.75781,0.38086 0,-7.22904 -0.002,-10.84742 -0.002,-18.07617 -0.35038,-0.35949 -0.52736,-0.54009 -0.87891,-0.90429 -0.35156,0.44305 -0.52998,0.6667 -0.88476,1.11328 v 2.02734 c -0.70635,-9.23334 -1.05886,-13.89072 -1.77344,-23.2832 -0.35332,-0.40627 -0.5336,-0.60789 -0.88867,-1.01563 -0.91052,14.02327 -1.43936,22.15116 -2.24219,34.68555 V 192.2793 c 0.13827,0.1774 0.28161,0.36483 0.45312,0.57812 0.35774,10.39272 0.53651,15.56808 0.89454,25.87696 0.35655,0.41863 0.53856,0.62027 0.89453,1.03124 1.07113,-7.38644 1.60215,-11.03212 2.66211,-18.22851 0.35478,0.0344 0.53291,0.0476 0.88476,0.082 0.35155,-8.84324 0.53078,-13.24724 0.88086,-22.00781 0.35155,-0.33008 0.52716,-0.49251 0.87696,-0.81641 z"
       style="opacity:0.997;fill:#800080;fill-opacity:1;stroke-width:2.16714096;stroke-opacity:0;filter:url(#filter4885)" /><path
       style="fill-opacity:0.19607999;fill-rule:evenodd;stroke-width:2.33832908;stroke-opacity:0"
       inkscape:connector-curvature="0"
       d="M 212.60902,105.33811 412.40846,205.40066 376.80889,223.07561 212.60902,105.3392 Z"
       id="path3992" /></g><g
     style="display:none"
     display="none"
     id="g3998"
     transform="matrix(2.1671409,0,0,2.1671409,-412.61689,-919.44457)"><rect
       style="opacity:0.997;fill:#cacaca;stroke-opacity:0"
       x="128.34"
       y="351.39999"
       width="541.02002"
       height="161.91"
       ry="21.719999"
       id="rect3996" /></g></g></svg>